<?xml version="1.0" standalone="no"?><!DOCTYPE svg PUBLIC "-//W3C//DTD SVG 1.1//EN" "http://www.w3.org/Graphics/SVG/1.1/DTD/svg11.dtd"><svg t="1698419857886" class="icon" viewBox="0 0 1024 1024" version="1.1" xmlns="http://www.w3.org/2000/svg" p-id="1851" xmlns:xlink="http://www.w3.org/1999/xlink" width="200" height="200"><path d="M661.333333 487.978667l-4.373333-3.392c-72.106667-53.930667-175.210667-48.234667-240.789333 17.045333a180.842667 180.842667 0 0 0 0 256.832l172.373333 171.605333a103.466667 103.466667 0 0 0 145.578667 0l172.373333-171.605333a180.842667 180.842667 0 0 0 0-256.853333c-65.578667-65.28-168.682667-70.954667-240.789333-17.002667l-4.373334 3.370667z" fill="#1AB370" opacity=".1" p-id="1852"></path><path d="M707.754667 544.021333a156.224 156.224 0 0 1 206.378666 14.912c61.162667 62.144 61.162667 162.56 0 224.725334l-147.754666 150.144a87.381333 87.381333 0 0 1-124.757334 0l-147.754666-150.144c-61.162667-62.144-61.162667-162.581333 0-224.725334a156.224 156.224 0 0 1 206.378666-14.933333l3.754667 2.986667zM746.666667 106.666667a128 128 0 0 1 128 128v138.666666a32 32 0 0 1-64 0V234.666667a64 64 0 0 0-60.245334-63.893334L746.666667 170.666667H277.333333a64 64 0 0 0-63.893333 60.245333L213.333333 234.666667v533.333333a64 64 0 0 0 60.245334 63.893333L277.333333 832h117.333334a32 32 0 0 1 0 64H277.333333a128 128 0 0 1-128-128V234.666667a128 128 0 0 1 128-128h469.333334z m121.856 497.152a92.266667 92.266667 0 0 0-132.053334 0L704 636.821333l-32.490667-33.002666a92.245333 92.245333 0 0 0-132.032 0 96.576 96.576 0 0 0 0 134.933333l147.754667 150.186667a23.381333 23.381333 0 0 0 33.536 0l147.754667-150.186667a96.576 96.576 0 0 0 0-134.933333zM650.666667 277.333333a32 32 0 0 1 0 64h-277.333334a32 32 0 0 1 0-64h277.333334z" fill="#1AB370" p-id="1853"></path></svg>