<?xml version="1.0" standalone="no"?><!DOCTYPE svg PUBLIC "-//W3C//DTD SVG 1.1//EN" "http://www.w3.org/Graphics/SVG/1.1/DTD/svg11.dtd"><svg t="1698587331761" class="icon" viewBox="0 0 1024 1024" version="1.1" xmlns="http://www.w3.org/2000/svg" p-id="1621" xmlns:xlink="http://www.w3.org/1999/xlink" width="200" height="200"><path d="M267.8 336.7c-0.4 6.1-0.6 12.3-0.6 18.5 0 144.1 109.6 260.9 244.8 260.9 135.2 0 244.8-116.8 244.8-260.9 0-6.2-0.2-12.4-0.6-18.5H267.8z" fill="#e6e6e6" p-id="1622"></path><path d="M908.6 956.9H115.4c-11 0-20-8.6-20-19.1v-149c0-31.7 60-68 60-68L331 606.1l163.5 177.6c7.3 8.1 20.1 8.8 28.4 1.7l169.5-179.2 8.9 6 167.3 109.6s60 35.3 60 67v148.9c0 10.6-9 19.2-20 19.2zM674.6 63.6H349.4c-46 0-83.2 37.8-83.2 84.4v141.5h491.7V148c0-46.6-37.3-84.4-83.3-84.4z m-86.7 125.8c0 6.6-3.3 12-7.3 12h-44.9v43c0 4.1-5.3 7.4-11.9 7.4h-23.7c-6.5 0-11.9-3.3-11.9-7.4v-43h-44.9c-4 0-7.3-5.4-7.3-12v-24c0-6.6 3.3-12 7.3-12h44.9v-48c0-4.1 5.3-7.4 11.9-7.4h23.7c6.5 0 11.9 3.3 11.9 7.4v48h44.9c4 0 7.3 5.4 7.3 12v24z" fill="#e6e6e6" p-id="1623"></path></svg>