<?xml version="1.0" standalone="no"?><!DOCTYPE svg PUBLIC "-//W3C//DTD SVG 1.1//EN" "http://www.w3.org/Graphics/SVG/1.1/DTD/svg11.dtd"><svg t="1698587292994" class="icon" viewBox="0 0 1024 1024" version="1.1" xmlns="http://www.w3.org/2000/svg" p-id="1467" xmlns:xlink="http://www.w3.org/1999/xlink" width="200" height="200"><path d="M0 512c0-281.6 230.4-512 512-512s512 230.4 512 512-230.4 512-512 512-512-230.4-512-512z m288-192c-38.4 0-64 25.6-64 64v256c0 38.4 25.6 64 64 64h147.2c6.4 0 19.2 6.4 25.6 6.4l38.4 38.4c6.4 6.4 19.2 6.4 25.6 0l38.4-38.4c6.4 0 19.2-6.4 25.6-6.4h147.2c38.4 0 64-25.6 64-64V384c0-38.4-25.6-64-64-64h-448z" fill="#1296db" p-id="1468"></path><path d="M384 544c19.2 0 32-12.8 32-32s-12.8-32-32-32-32 12.8-32 32 12.8 32 32 32zM512 544c19.2 0 32-12.8 32-32s-12.8-32-32-32-32 12.8-32 32 12.8 32 32 32zM640 544c19.2 0 32-12.8 32-32s-12.8-32-32-32-32 12.8-32 32 12.8 32 32 32z" fill="#1296db" p-id="1469"></path></svg>