<?xml version="1.0" standalone="no"?><!DOCTYPE svg PUBLIC "-//W3C//DTD SVG 1.1//EN" "http://www.w3.org/Graphics/SVG/1.1/DTD/svg11.dtd"><svg t="1698419842892" class="icon" viewBox="0 0 1024 1024" version="1.1" xmlns="http://www.w3.org/2000/svg" p-id="1702" xmlns:xlink="http://www.w3.org/1999/xlink" width="200" height="200"><path d="M949.521067 0C990.651733 0 1024 28.586667 1024 63.829333V1024H130.321067c-34.0992-0.170667-66.6624-12.288-90.094934-33.536C14.523733 969.4208 0 940.253867 0 909.789867V63.829333C0 28.586667 33.348267 0 74.478933 0h875.042134zM938.666667 768H123.8528c-31.880533 1.143467-56.712533 23.995733-55.552 51.182933v85.333334C67.140267 931.703467 91.9552 954.589867 123.8528 955.733333H938.666667V768z m-87.5008-307.2H474.9312c-29.457067 0.017067-53.333333 19.114667-53.367467 42.666667 0.034133 23.569067 23.9104 42.666667 53.367467 42.666666h376.234667c29.457067-0.017067 53.333333-19.114667 53.367466-42.666666-0.034133-23.552-23.893333-42.632533-53.367466-42.666667zM382.583467 68.266667c-29.422933 0-58.845867 10.820267-80.2304 32.477866L136.4992 265.898667c-45.4656 46.0288-45.4656 119.125333 0 162.440533C157.9008 449.979733 187.323733 460.8 216.746667 460.8c29.422933 0 58.845867-10.820267 80.247466-32.477867l165.8368-162.440533C484.232533 244.224 494.933333 214.459733 494.933333 184.6784c0-32.494933-10.7008-62.276267-32.085333-83.933867C441.412267 79.086933 411.989333 68.266667 382.5664 68.266667z m-160.477867 132.642133l139.093333 140.782933-74.9056 75.793067c-18.722133 18.944-42.8032 29.781333-69.546666 29.781333-26.743467 0-50.824533-10.837333-69.546667-29.781333-37.444267-37.888-37.444267-100.164267 0-140.765867l74.9056-75.810133zM851.182933 256H650.7008C621.226667 256.017067 597.333333 275.114667 597.333333 298.683733c0.034133 23.552 23.927467 42.632533 53.384534 42.6496h200.448c29.457067-0.017067 53.333333-19.114667 53.367466-42.666666-0.034133-23.552-23.893333-42.632533-53.367466-42.666667z m-465.92-155.255467c21.4016 0 42.8032 8.123733 58.845867 24.3712-2.679467 2.7136-2.679467 8.123733-5.341867 10.837334a8.055467 8.055467 0 0 1-10.7008 0 62.2592 62.2592 0 0 0-45.482666-18.944 64.1536 64.1536 0 0 0-45.4656 18.944l-50.824534 54.135466c-5.341867 0-8.021333 2.7136-8.021333 2.7136-2.679467 0-5.358933 0-5.358933-2.730666a8.311467 8.311467 0 0 1 0-10.820267l53.504-54.135467c16.042667-16.247467 34.781867-24.3712 58.845866-24.3712z" fill="#DA7D24" p-id="1703"></path></svg>