<?xml version="1.0" standalone="no"?><!DOCTYPE svg PUBLIC "-//W3C//DTD SVG 1.1//EN" "http://www.w3.org/Graphics/SVG/1.1/DTD/svg11.dtd"><svg t="1698420979938" class="icon" viewBox="0 0 1106 1024" version="1.1" xmlns="http://www.w3.org/2000/svg" p-id="1371" xmlns:xlink="http://www.w3.org/1999/xlink" width="216.015625" height="200"><path d="M983.04 143.36l-143.36 0-43.008 0L796.672 102.4c0-55.296-38.912-102.4-94.208-102.4L378.88 0c-55.296 0-94.208 45.056-94.208 102.4l0 40.96L102.4 143.36c-59.392 0-102.4 51.2-102.4 102.4l0 81.92 1085.44 0 0-81.92C1085.44 194.56 1042.432 143.36 983.04 143.36zM714.752 143.36l-348.16 0L366.592 122.88c0-26.624 14.336-40.96 40.96-40.96l266.24 0c26.624 0 40.96 18.432 40.96 45.056L714.752 143.36zM0 368.64l0 552.96c0 51.2 43.008 102.4 102.4 102.4l880.64 0c59.392 0 102.4-51.2 102.4-102.4L1085.44 368.64 0 368.64zM696.32 716.8l-131.072 0 0 133.12c0 12.288-8.192 20.48-20.48 20.48-12.288 0-20.48-8.192-20.48-20.48L524.288 716.8 389.12 716.8c-12.288 0-20.48-8.192-20.48-20.48s8.192-20.48 20.48-20.48l135.168 0 0-133.12c0-12.288 8.192-20.48 20.48-20.48 12.288 0 20.48 8.192 20.48 20.48L565.248 675.84 696.32 675.84c12.288 0 20.48 8.192 20.48 20.48S710.656 716.8 696.32 716.8z" fill="#FF962E" p-id="1372"></path></svg>