<?xml version="1.0" standalone="no"?><!DOCTYPE svg PUBLIC "-//W3C//DTD SVG 1.1//EN" "http://www.w3.org/Graphics/SVG/1.1/DTD/svg11.dtd"><svg t="1698419802920" class="icon" viewBox="0 0 1024 1024" version="1.1" xmlns="http://www.w3.org/2000/svg" p-id="1398" xmlns:xlink="http://www.w3.org/1999/xlink" width="200" height="200"><path d="M1024 544c0 265.12-214.944 480-480 480h-64C214.912 1024 0 809.12 0 544v-64C0 214.912 214.912 0 480 0h64c265.056 0 480 214.912 480 480v64z" fill="#FF4D4D" p-id="1399"></path><path d="M511.904 896c-3.424 0-7.04-0.736-10.336-1.824-181.12-68.832-300.448-244.896-296.768-438.432V291.424a29.44 29.44 0 0 1 20.736-28.128 978.56 978.56 0 0 0 269.792-130.112 29.44 29.44 0 0 1 33.312 0 978.496 978.496 0 0 0 269.824 130.048 29.216 29.216 0 0 1 20.768 28.128v164.672c3.744 193.024-115.52 369.312-296.608 437.888a31.04 31.04 0 0 1-10.72 2.08z" fill="#FFFFFF" p-id="1400"></path><path d="M726.624 756.32l-75.68-75.904a166.624 166.624 0 0 0-16.864-215.744 166.08 166.08 0 0 0-117.6-48.736 166.464 166.464 0 0 0 0 332.864 165.184 165.184 0 0 0 98.368-32.256l75.488 75.904c5.056 5.12 11.552 7.488 18.24 7.488a25.984 25.984 0 0 0 18.048-7.2 25.824 25.824 0 0 0 0-36.416z m-210.176-58.816a114.816 114.816 0 0 1-115.232-115.392 115.04 115.04 0 0 1 115.232-114.912c30.72 0 59.552 12 81.472 33.6 21.76 21.76 33.6 50.72 33.6 81.312a114.56 114.56 0 0 1-33.6 81.792 115.328 115.328 0 0 1-81.472 33.6z" fill="#FF4D4D" p-id="1401"></path></svg>